<svg version="1.1" xmlns="http://www.w3.org/2000/svg" xmlns:xlink="http://www.w3.org/1999/xlink" x="0px" y="0px" viewBox="0 0 55 55" style="enable-background:new 0 0 55 55;" xml:space="preserve">
    <clipPath id="ey-logo-first-line">
     <rect x="42" y="36" width="71" height="10"></rect>
    </clipPath>
    <clipPath id="ey-logo-second-line">
     <rect x="42" y="46" width="71" height="10"></rect>
    </clipPath>
    <polygon class="ey-logo-yellow" points="51.2,0 0,19.3 0,19.3 51.2,10 "></polygon>
    <polygon points="34.3,27 30,35.5 25.6,27 17,27 26.1,42.7 26.1,52.9 33.8,52.9 33.8,42.7 42.8,27 "></polygon>
    <polygon points="7.7,42.7 17,42.7 17,37.3 7.7,37.3 7.7,33 18,33 14.6,27 0,27 0,52.9 20.6,52.9 20.6,47 7.7,47 "></polygon>
</svg>